{"glyphs":{":":{"x_min":0,"x_max":189,"ha":189,"o":""},"$":{"x_min":0,"x_max":397,"ha":397,"o":"m 210 -5 q 207 -6 205 -10 l 197 -82 q 196 -86 193 -89 q 190 -92 186 -92 l 164 -92 q 154 -92 156 -82 l 165 -12 q 167 -8 162 -8 q 107 -3 75 36 q 43 76 43 137 q 43 147 45 167 l 47 188 q 49 198 58 198 l 89 198 q 94 198 96 195 q 99 192 98 188 l 95 169 q 94 161 94 146 q 94 96 118 67 q 142 38 182 38 q 215 38 243 56 q 271 75 288 109 q 304 143 304 185 q 304 215 292 238 q 280 262 262 280 q 244 297 203 333 q 162 368 140 391 q 117 414 102 444 q 88 475 88 514 q 88 598 133 650 q 178 702 246 708 q 250 708 250 712 l 259 788 q 259 792 262 795 q 265 798 270 798 l 291 798 q 301 798 299 788 l 290 709 q 290 705 293 704 q 342 695 369 657 q 396 619 396 560 q 396 552 394 530 l 391 505 q 389 495 380 495 l 348 495 q 339 495 339 505 l 342 530 q 344 548 344 556 q 344 604 320 633 q 296 662 254 662 q 211 662 179 630 q 147 599 140 542 q 139 535 139 522 q 139 482 160 454 q 181 425 237 378 q 284 338 308 314 q 331 289 344 262 q 357 235 357 199 q 357 191 355 171 q 346 100 306 53 q 267 6 210 -5 z"},"?":{"x_min":0,"x_max":342,"ha":342,"o":"m 137 205 l 145 270 q 150 311 168 338 q 186 364 222 397 q 259 432 279 462 q 299 491 305 539 q 307 557 307 564 q 307 608 287 634 q 267 660 233 660 q 192 660 163 626 q 134 593 127 538 l 123 504 q 121 494 112 494 l 80 496 q 70 496 72 506 l 76 538 q 85 614 130 662 q 176 709 239 709 q 295 709 326 672 q 358 635 358 572 q 358 562 356 538 q 349 476 325 440 q 301 403 260 364 q 230 336 215 316 q 200 296 197 267 l 189 205 q 187 195 178 195 l 145 195 q 135 195 137 205 z m 96 45 q 96 70 112 86 q 128 103 151 103 q 170 103 182 91 q 194 79 194 59 q 194 35 178 19 q 162 3 139 3 q 120 3 108 14 q 96 26 96 45 z"},"<":{"x_min":0,"x_max":429,"ha":429,"o":"m 373 66 l 50 244 q 43 247 45 256 l 49 289 q 51 299 57 301 l 424 479 l 429 481 q 432 481 434 478 q 435 476 434 472 l 430 440 q 430 433 422 428 l 102 276 q 97 273 101 270 l 384 117 q 390 112 389 105 l 385 73 q 384 68 380 66 q 377 63 373 66 z"},"'":{"x_min":0,"x_max":102,"ha":102,"o":"m 72 508 l 88 688 q 90 698 99 698 l 134 698 q 143 698 143 688 l 114 508 q 113 498 103 498 l 81 498 q 71 498 72 508 z"},"=":{"x_min":0,"x_max":429,"ha":429,"o":""},"a":{"x_min":0,"x_max":404,"ha":404,"o":"m 340 504 l 372 504 q 381 504 381 494 l 321 10 q 321 6 318 3 q 315 0 310 0 l 278 0 q 274 0 272 3 q 269 6 270 10 l 275 49 q 275 52 273 52 q 271 53 270 50 q 251 22 223 7 q 195 -8 163 -8 q 109 -8 79 25 q 49 58 49 114 q 49 122 51 142 l 78 362 q 86 429 126 470 q 167 512 227 512 q 259 512 283 497 q 307 482 320 454 q 321 451 322 452 q 324 452 325 455 l 329 494 q 331 504 340 504 z m 286 144 l 313 359 q 314 365 314 378 q 314 417 293 441 q 272 465 236 465 q 194 465 164 436 q 135 406 129 359 l 103 144 q 102 138 102 126 q 102 87 124 63 q 146 39 183 39 q 223 39 252 68 q 281 97 286 144 z"},"L":{"x_min":0,"x_max":377,"ha":377,"o":"m 58 10 l 142 690 q 144 700 153 700 l 185 700 q 195 700 193 690 l 115 51 q 115 47 118 47 l 345 47 q 354 47 354 37 l 350 10 q 350 6 347 3 q 344 0 340 0 l 67 0 q 58 0 58 10 z"},"3":{"x_min":0,"x_max":389,"ha":389,"o":"m 343 270 q 343 238 339 209 q 332 153 316 109 q 272 -8 166 -8 q 109 -8 77 24 q 45 57 42 117 q 41 125 41 143 q 41 170 44 198 q 44 202 47 205 q 50 208 55 208 l 87 208 q 96 208 95 198 q 92 173 92 151 q 92 96 112 68 q 132 39 172 39 q 204 39 229 59 q 254 79 269 118 q 281 154 289 213 q 294 251 294 276 q 294 301 289 326 q 275 395 215 395 q 203 395 194 391 q 190 389 186 390 q 183 390 181 393 l 168 410 q 163 416 168 424 l 327 648 q 328 650 328 652 q 327 653 325 653 l 113 653 q 103 653 105 663 l 108 690 q 110 700 119 700 l 388 700 q 392 700 394 697 q 397 694 396 690 l 392 660 q 392 655 388 647 l 238 436 q 236 431 239 431 q 278 429 304 403 q 329 377 337 333 q 343 306 343 270 z"},";":{"x_min":0,"x_max":178,"ha":178,"o":"m 73 401 q 73 425 90 442 q 106 460 126 460 q 143 460 154 446 q 166 433 166 414 q 166 390 150 372 q 134 355 113 355 q 95 355 84 368 q 73 381 73 401 z m 19 -59 l 64 140 q 67 149 75 149 l 104 149 q 108 149 110 146 q 112 142 111 138 l 57 -61 q 54 -70 46 -70 l 27 -70 q 22 -70 20 -66 q 18 -63 19 -59 z"},"J":{"x_min":0,"x_max":406,"ha":406,"o":"m 21 129 q 21 138 23 156 l 34 244 q 36 254 45 254 l 77 254 q 87 254 85 244 l 74 155 q 73 148 73 136 q 73 92 97 66 q 121 39 162 39 q 208 39 240 71 q 272 103 278 155 l 344 690 q 344 694 347 697 q 350 700 355 700 l 387 700 q 391 700 394 697 q 396 694 395 690 l 330 156 q 320 82 272 37 q 224 -8 156 -8 q 94 -8 58 29 q 21 66 21 129 z"},"V":{"x_min":0,"x_max":414,"ha":414,"o":"m 160 9 l 102 689 q 102 700 112 700 l 148 700 q 157 700 158 691 l 200 103 q 200 100 202 100 q 203 100 204 103 l 388 691 q 391 700 400 700 l 434 700 q 444 700 442 689 l 217 9 q 216 0 206 0 l 170 0 q 160 0 160 9 z"},"\"":{"x_min":0,"x_max":200,"ha":200,"o":"m 71 503 l 88 683 q 88 687 91 690 q 94 693 99 693 l 132 693 q 136 693 138 690 q 141 687 140 683 l 112 503 q 111 493 101 493 l 80 493 q 71 493 71 503 z m 170 503 l 188 683 q 188 687 191 690 q 194 693 199 693 l 231 693 q 235 693 238 690 q 240 687 239 683 l 211 503 q 210 493 200 493 l 179 493 q 170 493 170 503 z"},"7":{"x_min":0,"x_max":345,"ha":345,"o":"m 86 11 l 332 649 q 333 650 332 652 q 330 653 328 653 l 134 653 q 132 653 130 652 q 129 651 129 649 l 124 607 q 122 597 113 597 l 89 597 q 80 597 80 607 l 91 690 q 91 694 94 697 q 97 700 101 700 l 384 700 q 394 700 392 690 l 388 659 q 388 655 385 647 l 140 9 q 136 0 128 0 l 93 0 q 81 0 86 11 z"},"S":{"x_min":0,"x_max":397,"ha":397,"o":"m 43 137 q 43 147 45 167 l 47 188 q 49 198 58 198 l 89 198 q 94 198 96 195 q 99 192 98 188 l 95 169 q 94 161 94 146 q 94 96 118 67 q 142 38 182 38 q 215 38 243 56 q 271 75 288 109 q 304 143 304 185 q 304 215 292 238 q 280 262 262 280 q 244 297 203 333 q 162 368 140 391 q 117 414 102 444 q 88 475 88 514 q 88 523 90 543 q 100 620 147 664 q 194 708 260 708 q 323 708 360 668 q 396 629 396 561 q 396 552 394 530 l 391 505 q 389 495 380 495 l 348 495 q 339 495 339 505 l 342 530 q 344 548 344 556 q 344 604 320 633 q 296 662 254 662 q 211 662 179 630 q 147 599 140 542 q 139 535 139 522 q 139 482 160 454 q 181 425 237 378 q 284 338 308 314 q 331 289 344 262 q 357 235 357 199 q 357 191 355 171 q 345 89 296 40 q 247 -8 177 -8 q 116 -8 80 32 q 43 71 43 137 z"},"}":{"x_min":0,"x_max":247,"ha":247,"o":"m 1 -114 q -4 -114 -6 -111 q -9 -108 -8 -104 l -5 -77 q -4 -73 -1 -70 q 2 -67 6 -67 l 33 -67 q 61 -67 77 -48 q 93 -30 97 10 l 123 218 q 128 262 142 288 q 156 315 180 328 q 185 331 181 333 q 148 353 148 408 q 148 418 150 442 l 175 643 q 177 661 177 666 q 177 694 166 707 q 154 720 130 720 l 103 720 q 94 720 94 730 l 98 758 q 100 768 109 768 l 151 768 q 192 768 211 748 q 230 729 230 687 q 230 678 228 656 l 202 443 q 200 421 200 414 q 200 387 209 372 q 218 358 237 353 q 246 351 245 343 l 242 317 q 241 308 231 307 q 207 302 193 280 q 179 258 174 216 l 147 -3 q 140 -61 114 -88 q 89 -114 42 -114 z"},"Z":{"x_min":0,"x_max":379,"ha":379,"o":"m 17 10 l 21 41 q 21 48 24 53 l 341 648 q 343 650 342 652 q 341 653 339 653 l 105 653 q 101 653 98 656 q 96 659 97 663 l 100 690 q 102 700 111 700 l 394 700 q 399 700 402 697 q 404 694 403 690 l 399 659 q 399 655 396 647 l 79 52 q 78 50 79 48 q 80 47 81 47 l 314 47 q 323 47 323 37 l 319 10 q 319 6 316 3 q 313 0 308 0 l 25 0 q 15 0 17 10 z"},"x":{"x_min":0,"x_max":348,"ha":348,"o":"m 5 12 l 155 249 q 157 252 155 255 l 64 492 l 63 495 q 63 504 73 504 l 109 504 q 119 504 120 497 l 189 303 q 190 301 192 301 q 194 301 195 303 l 312 497 q 316 504 325 504 l 361 504 q 366 504 368 500 q 369 497 366 492 l 218 255 q 215 252 217 249 l 307 12 l 308 8 q 308 0 299 0 l 263 0 q 253 0 252 7 l 183 201 q 182 203 180 203 q 178 203 177 201 l 60 7 q 56 0 48 0 l 11 0 q 6 0 4 4 q 3 7 5 12 z"},")":{"x_min":0,"x_max":193,"ha":193,"o":"m 190 757 q 208 707 218 637 q 227 567 227 487 q 227 412 218 334 q 203 209 166 92 q 129 -24 83 -100 q 77 -107 70 -107 l 40 -107 q 35 -107 33 -104 q 31 -100 34 -96 q 75 -18 110 97 q 145 212 159 332 q 169 412 169 495 q 169 570 161 637 q 153 704 138 752 l 137 755 q 137 764 147 764 l 179 764 q 187 764 190 757 z"},"&":{"x_min":0,"x_max":511,"ha":511,"o":"m 443 8 q 443 5 440 2 q 438 0 434 0 l 401 0 q 394 0 389 6 l 352 76 q 349 81 346 76 q 304 32 264 12 q 224 -8 177 -8 q 112 -8 76 26 q 40 59 40 123 q 40 203 79 258 q 118 314 188 371 q 190 372 190 376 q 155 444 143 476 q 131 507 131 534 q 131 585 150 625 q 170 665 204 686 q 239 708 282 708 q 335 708 367 675 q 399 642 399 587 q 399 538 380 499 q 360 460 330 430 q 301 400 256 363 q 254 362 254 358 l 306 261 l 358 165 q 360 162 363 165 q 381 189 421 248 q 424 252 428 253 q 432 254 435 252 l 457 238 q 464 233 458 224 q 419 164 386 122 q 383 119 385 116 l 442 12 q 443 11 443 8 z m 182 538 q 182 517 192 490 q 202 463 229 408 q 229 404 234 407 q 289 453 318 492 q 347 530 347 579 q 347 616 328 638 q 309 659 277 659 q 236 659 209 626 q 182 592 182 538 z m 326 118 q 327 120 327 124 l 313 149 q 296 177 286 198 l 217 326 q 216 331 212 327 q 160 283 130 243 q 100 203 93 153 q 92 146 92 134 q 92 89 117 64 q 142 39 187 39 q 224 39 256 58 q 289 76 326 118 z"},"_":{"x_min":0,"x_max":354,"ha":354,"o":"m 5 10 l 8 34 q 10 44 19 44 l 307 44 q 316 44 316 34 l 313 10 q 312 6 309 3 q 306 0 302 0 l 14 0 q 9 0 6 3 q 4 6 5 10 z"},"v":{"x_min":0,"x_max":353,"ha":353,"o":"m 129 9 l 67 493 l 67 495 q 67 499 70 502 q 73 504 77 504 l 114 504 q 122 504 124 495 l 166 90 q 167 87 168 87 q 169 87 170 90 l 312 495 q 315 504 324 504 l 361 503 q 366 503 368 500 q 370 497 368 492 l 189 9 q 188 0 178 0 l 139 0 q 129 0 129 9 z"},"O":{"x_min":0,"x_max":438,"ha":438,"o":"m 57 134 q 57 142 59 160 l 106 539 q 115 615 165 662 q 215 708 286 708 q 351 708 390 669 q 428 630 428 565 q 428 557 426 539 l 380 160 q 370 85 320 38 q 269 -8 198 -8 q 134 -8 96 30 q 57 69 57 134 z m 328 158 l 375 541 q 376 548 376 561 q 376 606 350 634 q 324 661 280 661 q 232 661 198 628 q 164 594 158 541 l 111 158 q 110 151 110 138 q 110 93 136 66 q 161 39 204 39 q 253 39 287 72 q 321 105 328 158 z"},"(":{"x_min":0,"x_max":193,"ha":193,"o":"m 44 -100 q 27 -50 17 20 q 7 90 7 169 q 7 244 16 323 q 31 448 68 564 q 106 681 152 757 q 158 764 165 764 l 194 764 q 199 764 201 760 q 203 757 200 753 q 159 674 124 559 q 90 444 76 325 q 66 245 66 160 q 66 86 74 20 q 82 -46 96 -96 l 97 -99 q 97 -107 87 -107 l 55 -107 q 47 -107 44 -100 z"},"C":{"x_min":0,"x_max":428,"ha":428,"o":"m 57 132 q 57 141 59 159 l 106 543 q 116 618 164 663 q 213 708 284 708 q 348 708 386 670 q 424 633 424 569 q 424 561 422 543 l 419 524 q 419 520 416 516 q 413 513 408 513 l 376 511 q 366 511 368 521 l 371 546 q 372 552 372 564 q 372 608 346 634 q 321 661 278 661 q 230 661 198 630 q 165 598 158 546 l 110 155 q 109 149 109 136 q 109 92 134 66 q 159 39 202 39 q 250 39 283 71 q 316 103 323 155 l 325 178 q 326 182 329 185 q 332 188 336 188 l 368 186 q 377 186 377 176 l 375 159 q 365 83 316 38 q 267 -8 196 -8 q 132 -8 94 30 q 57 68 57 132 z"},"W":{"x_min":0,"x_max":588,"ha":588,"o":"m 139 9 l 95 689 q 95 694 98 697 q 101 700 105 700 l 139 700 q 149 700 149 691 l 179 124 q 180 122 181 122 q 182 122 183 124 l 337 691 q 340 700 348 700 l 378 700 q 386 700 387 691 l 406 124 q 407 122 408 122 q 409 122 410 124 l 571 691 q 574 700 582 700 l 616 700 q 620 700 622 697 q 625 694 623 689 l 419 9 q 416 0 407 0 l 376 0 q 368 0 368 9 l 350 575 q 349 577 348 577 q 347 577 346 575 l 190 9 q 189 0 179 0 l 148 0 q 139 0 139 9 z"},"A":{"x_min":0,"x_max":379,"ha":379,"o":"m 297 9 l 287 140 q 287 142 286 143 q 284 144 282 144 l 92 144 q 90 144 88 143 q 87 142 87 140 l 45 9 q 42 0 33 0 l 1 0 q -4 0 -6 3 q -8 6 -6 11 l 225 691 q 227 700 236 700 l 275 700 q 284 700 285 691 l 350 11 q 350 6 347 3 q 344 0 340 0 l 307 0 q 297 0 297 9 z m 107 188 l 278 188 q 280 188 282 192 l 247 615 q 247 618 246 618 q 245 618 243 615 l 104 192 q 104 188 107 188 z"},"f":{"x_min":0,"x_max":263,"ha":263,"o":"m 182 544 l 178 508 q 178 504 181 504 l 261 504 q 271 504 269 494 l 267 472 q 266 468 263 465 q 260 462 256 462 l 176 462 q 172 462 172 458 l 117 10 q 115 0 106 0 l 74 0 q 65 0 65 10 l 120 458 q 121 459 120 460 q 119 462 117 462 l 76 462 q 66 462 68 472 l 70 494 q 72 504 81 504 l 122 504 q 126 504 126 508 l 131 545 q 141 629 174 668 q 207 708 274 708 l 289 708 q 299 708 297 698 l 293 672 q 292 662 282 662 l 269 662 q 228 662 209 634 q 190 605 182 544 z"},"Q":{"x_min":0,"x_max":426,"ha":426,"o":"m 415 566 q 415 557 413 537 l 367 163 q 359 95 320 50 q 280 4 222 -5 q 218 -6 218 -10 l 206 -110 q 204 -120 195 -120 l 162 -120 q 153 -120 153 -110 l 166 -10 q 166 -7 163 -5 q 114 4 86 41 q 58 78 58 135 q 58 143 60 163 l 106 537 q 115 613 164 660 q 213 708 281 708 q 342 708 378 670 q 415 631 415 566 z m 362 542 q 363 549 363 563 q 363 607 339 634 q 315 661 275 661 q 229 661 196 628 q 164 595 158 542 l 111 158 q 110 151 110 137 q 110 92 134 66 q 158 39 199 39 q 244 39 276 72 q 309 106 315 158 z"},"w":{"x_min":0,"x_max":523,"ha":523,"o":"m 109 9 l 66 493 q 66 504 76 504 l 107 504 q 117 504 117 495 l 145 87 q 145 84 146 84 q 147 84 148 87 l 277 495 q 280 504 289 504 l 317 504 q 326 504 327 495 l 356 87 q 356 84 358 84 q 359 84 360 87 l 490 495 q 492 504 501 504 l 531 503 q 541 503 539 492 l 376 9 q 373 0 364 0 l 332 0 q 322 0 322 9 l 292 402 q 291 405 290 405 q 289 405 288 402 l 163 9 q 160 0 151 0 l 118 0 q 109 0 109 9 z"},"-":{"x_min":0,"x_max":300,"ha":300,"o":"m 51 301 l 54 328 q 56 338 65 338 l 279 338 q 288 338 288 328 l 284 301 q 284 297 281 294 q 278 291 273 291 l 59 291 q 49 291 51 301 z"},"E":{"x_min":0,"x_max":414,"ha":414,"o":"m 423 653 l 193 653 q 190 653 188 649 l 155 378 q 155 376 156 375 q 157 374 158 374 l 306 374 q 316 374 314 364 l 311 337 q 309 327 300 327 l 153 327 q 150 327 148 323 l 115 51 q 115 47 118 47 l 348 47 q 357 47 357 37 l 353 10 q 353 6 350 3 q 347 0 342 0 l 67 0 q 58 0 58 10 l 142 690 q 144 700 153 700 l 428 700 q 433 700 436 697 q 438 694 437 690 l 434 663 q 433 659 430 656 q 427 653 423 653 z"},"s":{"x_min":0,"x_max":353,"ha":353,"o":"m 39 105 q 39 116 40 122 l 41 128 q 43 138 52 138 l 82 138 q 92 138 90 128 l 90 122 l 89 111 q 89 79 111 58 q 133 38 170 38 q 209 38 236 62 q 262 87 267 126 l 268 138 q 268 163 256 180 q 244 196 226 206 q 209 216 177 231 q 127 253 100 278 q 73 304 73 354 q 73 423 116 466 q 159 508 225 508 q 282 508 314 477 q 346 446 346 394 q 346 382 345 375 l 344 372 q 344 368 341 365 q 338 362 334 362 l 304 362 q 300 362 298 365 q 295 368 296 372 l 297 377 q 301 414 280 439 q 258 464 220 464 q 178 464 150 436 q 123 407 123 364 q 123 331 144 314 q 164 296 208 275 q 243 259 265 246 q 287 232 303 208 q 319 184 319 149 q 319 80 276 38 q 233 -5 164 -5 q 106 -5 72 26 q 39 56 39 105 z"},">":{"x_min":0,"x_max":429,"ha":429,"o":"m 28 64 q 25 64 24 66 q 22 69 23 73 l 26 105 q 27 112 35 117 l 356 270 q 361 273 357 276 l 73 428 q 66 432 68 440 l 72 472 q 72 477 76 480 q 80 482 84 479 l 407 301 q 412 299 412 289 l 408 256 q 406 246 400 244 l 33 66 z"},"l":{"x_min":0,"x_max":169,"ha":169,"o":"m 41 10 l 124 690 q 125 694 128 697 q 131 700 135 700 l 167 700 q 172 700 174 697 q 177 694 176 690 l 92 10 q 92 6 89 3 q 86 0 81 0 l 49 0 q 45 0 42 3 q 40 6 41 10 z"},"8":{"x_min":0,"x_max":405,"ha":405,"o":"m 301 370 q 334 351 346 313 q 357 282 357 243 q 357 217 353 193 q 348 143 329 97 q 306 47 268 20 q 230 -8 181 -8 q 134 -8 103 20 q 72 47 61 97 q 57 117 57 147 q 57 169 60 194 q 67 258 93 305 q 114 349 155 370 q 159 373 156 376 q 125 395 112 428 q 99 462 99 501 q 99 511 101 533 q 108 594 136 637 q 158 672 192 690 q 227 709 269 709 q 311 709 340 691 q 370 673 384 639 q 397 610 397 569 q 397 545 395 532 q 387 470 361 430 q 337 393 301 376 q 296 373 301 370 z m 150 497 q 150 468 159 445 q 177 396 231 396 q 287 396 319 450 q 346 499 346 558 q 346 590 335 614 q 318 662 264 662 q 208 662 179 611 q 158 578 152 528 q 150 506 150 497 z m 302 195 q 305 218 305 237 q 305 269 299 291 q 283 351 225 351 q 197 351 174 334 q 151 318 136 286 q 119 253 111 196 q 108 171 108 150 q 108 133 111 116 q 117 79 136 59 q 156 39 187 39 q 219 39 244 60 q 269 81 284 120 q 297 151 302 195 z"},"\\":{"x_min":0,"x_max":304,"ha":304,"o":"m 259 9 q 259 0 250 0 l 218 0 q 209 0 209 9 l 127 689 l 127 691 q 127 700 136 700 l 168 700 q 178 700 178 691 l 259 11 z"},"e":{"x_min":0,"x_max":388,"ha":388,"o":"m 341 233 l 118 233 q 115 233 113 229 l 103 144 q 102 138 102 126 q 102 87 124 63 q 145 39 182 39 q 216 39 243 60 q 270 81 282 115 q 287 124 294 124 l 324 122 q 328 122 330 120 q 333 118 332 114 q 332 111 331 110 q 315 55 274 24 q 233 -8 177 -8 q 118 -8 84 26 q 49 60 49 117 q 49 125 51 141 l 78 362 q 86 428 131 470 q 176 512 240 512 q 299 512 334 478 q 368 443 368 386 q 368 378 366 362 l 352 243 q 350 233 341 233 z m 129 359 l 120 283 q 120 281 121 280 q 122 279 123 279 l 301 279 q 305 279 305 283 l 315 359 q 316 365 316 376 q 316 417 294 441 q 272 465 235 465 q 194 465 164 436 q 135 406 129 359 z"},"b":{"x_min":0,"x_max":404,"ha":404,"o":"m 378 388 q 378 380 376 362 l 349 141 q 341 75 300 34 q 258 -8 198 -8 q 169 -8 145 4 q 121 16 107 39 q 105 41 104 40 q 102 40 102 38 l 98 10 q 96 0 87 0 l 55 0 q 45 0 47 10 l 130 690 q 132 700 141 700 l 173 700 q 182 700 182 690 l 154 466 q 154 464 156 464 q 158 463 159 465 q 179 488 206 500 q 233 512 262 512 q 315 512 346 478 q 378 444 378 388 z m 326 377 q 326 417 304 441 q 281 465 244 465 q 204 465 176 436 q 147 406 141 359 l 115 144 q 114 138 114 126 q 114 87 135 63 q 156 39 192 39 q 233 39 263 68 q 293 98 299 144 l 325 359 q 326 365 326 377 z"},"%":{"x_min":0,"x_max":762,"ha":762,"o":"m 126 555 q 126 596 147 632 q 168 667 202 688 q 237 710 276 710 q 326 710 358 676 q 391 642 391 591 q 391 549 370 513 q 350 477 316 455 q 281 433 242 433 q 192 433 159 468 q 126 503 126 555 z m 164 12 l 604 693 q 608 700 617 700 l 637 700 q 643 700 645 696 q 647 693 643 688 l 204 7 q 200 0 191 0 l 171 0 q 166 0 164 4 q 161 7 164 12 z m 356 586 q 356 624 332 650 q 308 675 272 675 q 243 675 218 659 q 192 643 176 616 q 161 589 161 558 q 161 519 185 493 q 209 467 246 467 q 275 467 300 484 q 325 500 340 528 q 356 555 356 586 z m 418 111 q 418 153 439 188 q 460 224 494 246 q 529 267 568 267 q 617 267 650 233 q 682 199 682 148 q 682 106 662 70 q 641 34 606 12 q 572 -10 534 -10 q 483 -10 450 24 q 418 59 418 111 z m 648 143 q 648 182 624 208 q 601 233 564 233 q 535 233 509 217 q 483 201 468 174 q 452 147 452 115 q 452 76 476 50 q 501 25 539 25 q 567 25 592 42 q 617 58 632 85 q 648 112 648 143 z"},"m":{"x_min":0,"x_max":622,"ha":622,"o":"m 588 382 q 588 371 586 347 l 544 10 q 544 6 541 3 q 538 0 534 0 l 501 0 q 497 0 494 3 q 492 6 493 10 l 534 342 q 536 360 536 369 q 536 414 517 439 q 498 464 465 464 q 424 464 396 432 q 369 400 362 344 l 321 10 q 321 6 318 3 q 315 0 310 0 l 278 0 q 274 0 272 3 q 269 6 270 10 l 311 342 q 313 360 313 368 q 313 413 294 438 q 275 464 242 464 q 201 464 173 432 q 145 400 138 344 l 97 10 q 97 6 94 3 q 91 0 86 0 l 55 0 q 45 0 47 10 l 106 494 q 108 504 117 504 l 148 504 q 157 504 157 494 l 152 457 q 152 454 154 454 q 155 453 157 456 q 178 483 206 497 q 234 511 264 511 q 300 511 324 491 q 349 471 360 434 q 360 429 365 436 q 386 473 418 492 q 451 511 487 511 q 535 511 562 476 q 588 442 588 382 z"},"#":{"x_min":0,"x_max":564,"ha":564,"o":"m 530 436 l 470 436 q 465 436 464 432 l 418 257 q 417 256 418 254 q 419 253 420 253 l 476 253 q 481 253 484 250 q 486 247 485 243 l 481 216 q 481 212 478 209 q 475 206 471 206 l 408 206 q 407 206 405 205 q 403 204 403 202 l 355 23 q 352 14 344 14 l 312 15 q 308 15 306 18 q 303 21 305 26 l 351 202 q 351 206 348 206 l 192 206 q 187 206 187 202 l 139 23 q 136 14 128 14 l 96 15 q 92 15 90 18 q 87 21 89 26 l 134 202 q 135 203 134 204 q 133 206 132 206 l 75 206 q 66 206 66 216 l 70 243 q 70 247 73 250 q 76 253 81 253 l 145 253 q 146 253 148 254 q 150 255 150 257 l 196 432 q 196 436 193 436 l 134 436 q 124 436 126 446 l 129 473 q 131 483 140 483 l 206 483 q 211 483 211 487 l 259 667 q 262 676 270 676 l 302 674 q 307 674 308 671 q 310 668 309 664 l 263 487 q 263 483 266 483 l 422 483 q 427 483 427 487 l 476 667 q 479 676 487 676 l 518 674 q 528 674 526 664 l 480 487 q 480 483 482 483 l 536 483 q 540 483 542 480 q 545 477 544 473 l 541 446 q 539 436 530 436 z m 366 257 l 412 432 q 412 436 410 436 l 253 436 q 248 436 248 432 l 201 257 q 201 253 204 253 l 361 253 q 366 253 366 257 z"},",":{"x_min":0,"x_max":164,"ha":164,"o":"m 13 -63 l 71 145 q 74 154 82 154 l 109 154 q 114 154 116 151 q 118 148 116 143 l 50 -65 q 49 -74 38 -74 l 20 -74 q 16 -74 14 -71 q 11 -68 13 -63 z"},"n":{"x_min":0,"x_max":406,"ha":406,"o":"m 373 389 q 373 379 371 355 l 329 10 q 327 0 318 0 l 286 0 q 276 0 278 10 l 319 350 q 321 368 321 376 q 321 418 302 441 q 282 464 245 464 q 203 464 174 432 q 146 400 139 344 l 98 10 q 96 0 87 0 l 55 0 q 45 0 47 10 l 106 494 q 108 504 117 504 l 149 504 q 158 504 158 494 l 153 456 q 152 453 154 453 q 156 453 158 455 q 198 511 267 511 q 318 511 346 479 q 373 447 373 389 z"},"h":{"x_min":0,"x_max":406,"ha":406,"o":"m 373 389 q 373 379 371 355 l 329 10 q 327 0 318 0 l 286 0 q 276 0 278 10 l 319 350 q 321 368 321 376 q 321 418 302 441 q 282 464 245 464 q 203 464 174 432 q 146 400 139 344 l 98 10 q 96 0 87 0 l 55 0 q 45 0 47 10 l 130 690 q 132 700 141 700 l 173 700 q 182 700 182 690 l 153 456 q 152 453 154 453 q 156 453 158 455 q 198 511 267 511 q 318 511 346 479 q 373 447 373 389 z"},"z":{"x_min":0,"x_max":347,"ha":347,"o":"m 18 10 l 22 42 q 22 45 26 55 l 285 450 q 288 455 284 455 l 85 455 q 76 455 76 465 l 80 494 q 82 504 91 504 l 345 504 q 354 504 354 494 l 350 462 q 348 452 345 449 l 85 54 q 84 52 84 50 q 85 49 87 49 l 289 49 q 298 49 298 39 l 294 10 q 292 0 283 0 l 26 0 q 16 0 18 10 z"},"B":{"x_min":0,"x_max":430,"ha":430,"o":"m 206 0 l 67 0 q 58 0 58 10 l 142 690 q 144 700 153 700 l 286 700 q 358 700 398 662 q 437 625 437 554 q 437 531 435 519 q 422 404 333 364 q 331 363 330 362 q 330 361 331 360 q 400 321 400 224 q 400 213 398 189 q 388 100 336 50 q 284 0 206 0 z m 188 649 l 156 387 q 156 383 160 383 l 248 383 q 311 383 348 426 q 386 469 386 544 q 386 596 358 624 q 331 653 281 653 l 193 653 q 190 653 188 649 z m 347 193 q 349 215 349 223 q 349 279 322 310 q 295 341 245 341 l 154 341 q 150 341 150 337 l 115 52 q 115 48 118 48 l 209 48 q 265 48 302 86 q 338 124 347 193 z"},"K":{"x_min":0,"x_max":429,"ha":429,"o":"m 58 10 l 142 690 q 144 700 153 700 l 185 700 q 195 700 193 690 l 151 347 q 151 344 153 344 q 155 343 156 346 l 401 693 q 408 700 414 700 l 451 700 q 456 700 458 696 q 460 693 456 688 l 270 422 q 268 420 268 416 l 389 12 l 389 9 q 389 5 386 2 q 383 0 379 0 l 342 0 q 334 0 333 8 l 228 368 q 227 372 223 368 l 142 261 q 140 259 140 256 l 110 10 q 108 0 99 0 l 67 0 q 58 0 58 10 z"},"R":{"x_min":0,"x_max":423,"ha":423,"o":"m 320 8 l 252 325 q 252 328 249 328 l 153 328 q 150 328 148 324 l 110 10 q 108 0 99 0 l 67 0 q 58 0 58 10 l 142 690 q 144 700 153 700 l 303 700 q 363 700 398 658 q 433 617 433 548 q 433 524 431 512 q 423 445 389 398 q 355 351 305 334 q 301 333 301 329 l 372 11 l 372 9 q 372 0 363 0 l 331 0 q 327 0 324 2 q 321 4 320 8 z m 188 649 l 155 376 q 155 372 158 372 l 257 372 q 292 372 320 393 q 349 414 366 452 q 382 491 382 540 q 382 592 358 622 q 334 653 292 653 l 193 653 q 190 653 188 649 z"},"T":{"x_min":0,"x_max":399,"ha":399,"o":"m 429 690 l 426 663 q 424 653 415 653 l 286 653 q 283 653 281 649 l 203 10 q 201 0 192 0 l 160 0 q 150 0 152 10 l 230 649 q 230 653 227 653 l 105 653 q 101 653 98 656 q 96 659 97 663 l 100 690 q 102 700 111 700 l 421 700 q 425 700 428 697 q 430 694 429 690 z"},"P":{"x_min":0,"x_max":423,"ha":423,"o":"m 433 548 q 433 524 431 512 q 421 428 374 376 q 326 325 259 325 l 151 325 q 150 325 148 324 q 147 323 147 321 l 109 10 q 107 0 98 0 l 66 0 q 57 0 57 10 l 141 692 q 143 702 152 702 l 303 702 q 363 702 398 660 q 433 618 433 548 z m 380 511 q 382 531 382 541 q 382 593 358 624 q 333 654 292 654 l 192 654 q 189 654 187 650 l 153 373 q 153 369 157 369 l 257 369 q 304 369 338 408 q 372 447 380 511 z"},"|":{"x_min":0,"x_max":129,"ha":129,"o":"m 11 -70 l 111 750 q 112 754 115 757 q 118 760 122 760 l 154 760 q 159 760 162 757 q 164 754 163 750 l 62 -70 q 60 -80 51 -80 l 19 -80 q 9 -80 11 -70 z"},"t":{"x_min":0,"x_max":253,"ha":253,"o":"m 251 462 l 173 462 q 169 462 169 458 l 129 136 q 127 116 127 110 q 127 75 142 61 q 156 47 187 47 l 197 47 q 207 47 205 37 l 202 10 q 200 0 191 0 l 172 0 q 124 0 100 20 q 75 39 75 91 q 75 99 77 123 l 118 458 q 119 459 118 460 q 117 462 115 462 l 75 462 q 65 462 67 472 l 69 494 q 71 504 80 504 l 120 504 q 124 504 124 508 l 138 620 q 140 630 149 630 l 180 630 q 189 630 189 620 l 175 508 q 175 504 178 504 l 256 504 q 266 504 264 494 l 262 472 q 260 462 251 462 z"},"M":{"x_min":0,"x_max":499,"ha":499,"o":"m 447 700 l 480 700 q 490 700 488 690 l 405 10 q 403 0 394 0 l 362 0 q 353 0 353 10 l 423 577 q 423 580 422 580 q 420 580 418 578 l 282 334 q 278 326 271 326 q 262 326 261 333 l 183 576 q 182 578 180 578 q 179 578 178 575 l 109 10 q 107 0 98 0 l 66 0 q 57 0 57 10 l 141 690 q 143 700 152 700 l 185 700 q 192 700 195 693 l 281 431 q 281 429 284 429 q 286 429 287 431 l 435 693 q 439 700 447 700 z"},"g":{"x_min":0,"x_max":394,"ha":394,"o":"m 340 504 l 373 504 q 382 504 382 494 l 322 6 q 309 -97 257 -151 q 205 -205 104 -201 q 94 -201 96 -191 l 99 -164 q 100 -154 113 -154 q 187 -154 224 -113 q 260 -72 270 10 l 275 48 q 275 51 273 52 q 271 52 270 49 q 250 22 222 8 q 195 -5 164 -5 q 111 -5 80 28 q 50 62 50 118 q 50 127 52 145 l 78 362 q 86 429 127 470 q 168 512 228 512 q 259 512 284 498 q 308 484 320 458 q 322 456 324 456 q 325 456 325 459 l 329 494 q 331 504 340 504 z m 287 147 l 313 359 q 314 365 314 378 q 314 417 293 441 q 272 465 236 465 q 195 465 165 436 q 135 406 129 359 l 103 147 q 102 141 102 131 q 102 91 124 66 q 147 42 184 42 q 224 42 252 71 q 281 100 287 147 z"},"j":{"x_min":0,"x_max":190,"ha":190,"o":"m 102 647 q 102 672 118 688 q 134 705 157 705 q 177 705 188 693 q 200 681 200 661 q 200 637 184 621 q 168 605 145 605 q 126 605 114 616 q 102 628 102 647 z m -66 -199 l -63 -172 q -61 -162 -52 -162 q -13 -160 10 -132 q 33 -104 39 -55 l 106 494 q 108 504 117 504 l 149 504 q 158 504 158 494 l 90 -55 q 81 -130 48 -169 q 14 -208 -58 -209 q -62 -209 -64 -206 q -67 -203 -66 -199 z"},"i":{"x_min":0,"x_max":199,"ha":199,"o":"m 111 649 q 111 673 127 689 q 143 705 166 705 q 185 705 197 694 q 209 682 209 663 q 209 638 193 622 q 177 605 154 605 q 135 605 123 617 q 111 629 111 649 z m 56 10 l 115 494 q 117 504 126 504 l 158 504 q 168 504 166 494 l 107 10 q 105 0 96 0 l 64 0 q 54 0 56 10 z"},"y":{"x_min":0,"x_max":343,"ha":343,"o":"m -5 -190 l -2 -164 q 0 -154 9 -154 l 10 -154 q 39 -153 56 -141 q 74 -129 89 -98 q 104 -68 125 -3 q 126 -1 126 0 q 125 2 125 3 l 62 493 l 62 496 q 62 504 72 504 l 106 504 q 110 504 112 502 q 115 499 115 495 l 160 78 q 160 75 162 75 q 163 75 164 78 l 310 495 q 313 504 322 504 l 357 503 q 362 503 364 500 q 365 496 363 492 l 160 -51 q 135 -116 116 -147 q 96 -178 72 -189 q 47 -200 5 -200 l 0 -200 q -2 -200 -4 -197 q -6 -194 -5 -190 z"},"@":{"x_min":0,"x_max":740,"ha":740,"o":"m 710 373 q 710 326 697 275 q 675 182 624 130 q 573 78 507 78 q 443 78 423 126 q 420 131 417 126 q 400 101 376 88 q 353 76 327 76 q 289 76 267 98 q 245 119 245 156 q 245 169 248 182 l 258 222 q 260 228 268 260 l 286 335 q 298 383 330 412 q 361 440 405 440 q 423 440 439 432 q 455 425 464 410 q 465 408 466 408 q 468 408 469 411 l 472 426 q 475 435 483 435 l 503 435 q 508 435 510 432 q 513 428 512 424 l 460 213 q 456 198 456 181 q 456 151 472 134 q 489 116 519 116 q 564 116 600 158 q 636 199 655 274 q 667 322 667 365 q 667 459 610 514 q 553 568 455 568 q 379 568 308 528 q 236 489 183 418 q 130 346 108 254 q 96 205 96 162 q 96 64 152 7 q 209 -50 300 -50 q 349 -50 392 -36 q 436 -23 464 -3 q 469 0 471 0 q 475 0 478 -5 l 486 -19 q 487 -21 487 -24 q 487 -28 482 -33 q 448 -57 396 -73 q 345 -89 288 -89 q 182 -89 118 -24 q 55 40 55 151 q 55 203 68 256 q 93 358 154 438 q 214 517 296 562 q 378 606 465 606 q 578 606 644 544 q 710 481 710 373 z m 414 185 l 417 199 q 419 205 419 208 l 452 343 q 453 347 453 355 q 453 378 440 391 q 428 404 406 404 q 378 404 356 384 q 333 365 325 333 q 311 281 307 258 q 302 236 288 185 q 286 171 286 165 q 286 140 299 126 q 312 113 335 113 q 362 113 383 132 q 404 152 414 185 z"},".":{"x_min":0,"x_max":176,"ha":176,"o":""},"p":{"x_min":0,"x_max":410,"ha":410,"o":"m 384 388 q 384 380 382 362 l 355 142 q 347 75 305 34 q 263 -8 204 -8 q 175 -8 151 4 q 127 16 112 39 q 109 44 107 38 l 80 -186 q 78 -196 69 -196 l 37 -196 q 27 -196 29 -186 l 112 494 q 114 504 123 504 l 155 504 q 165 504 163 494 l 160 466 q 160 464 162 464 q 163 463 165 465 q 185 488 212 500 q 238 512 268 512 q 322 512 353 478 q 384 444 384 388 z m 332 378 q 332 417 310 441 q 287 465 250 465 q 210 465 182 436 q 153 407 147 360 l 121 144 q 120 138 120 125 q 120 86 141 62 q 162 39 198 39 q 239 39 269 68 q 299 98 305 144 l 331 360 q 332 366 332 378 z"},"X":{"x_min":0,"x_max":411,"ha":411,"o":"m 22 12 l 201 347 q 203 350 201 353 l 105 688 l 104 691 q 104 700 114 700 l 149 700 q 156 700 159 692 l 233 407 q 234 404 236 404 q 238 404 239 407 l 384 692 q 387 700 395 700 l 429 700 q 434 700 436 696 q 438 693 436 688 l 257 352 q 254 349 256 346 l 353 12 l 353 9 q 353 5 350 2 q 347 0 343 0 l 309 0 q 301 0 300 8 l 225 292 q 225 295 223 294 q 221 294 219 292 l 74 8 q 70 0 62 0 l 28 0 q 23 0 21 4 q 19 7 22 12 z"},"*":{"x_min":0,"x_max":350,"ha":350,"o":"m 187 404 l 203 532 q 203 537 199 535 l 88 469 q 84 467 82 467 q 77 467 75 473 l 69 487 l 67 492 q 67 497 73 501 l 186 567 q 188 568 188 570 q 188 572 187 573 l 90 639 q 83 645 89 653 l 98 667 q 105 676 112 671 l 207 605 q 209 604 210 605 q 212 606 212 608 l 228 737 q 230 747 239 747 l 256 747 q 260 747 262 744 q 265 741 264 737 l 248 608 q 248 606 250 605 q 252 604 253 605 l 363 671 l 368 673 q 374 673 376 667 l 382 653 q 383 651 383 648 q 383 643 377 639 l 265 573 q 264 572 264 570 q 264 568 265 567 l 360 501 q 364 498 364 494 q 364 492 361 487 l 352 473 q 345 464 338 469 l 244 535 q 243 536 241 535 q 239 534 239 532 l 223 404 q 221 394 212 394 l 196 394 q 187 394 187 404 z"},"Y":{"x_min":0,"x_max":399,"ha":399,"o":"m 155 10 l 194 320 q 194 324 193 325 l 104 688 l 103 691 q 103 700 113 700 l 147 700 q 157 700 158 692 l 225 386 q 226 384 228 384 q 230 384 231 386 l 372 692 q 376 700 385 700 l 419 700 q 424 700 426 696 q 428 693 425 688 l 247 325 q 245 324 245 320 l 207 10 q 205 0 196 0 l 164 0 q 155 0 155 10 z"},"c":{"x_min":0,"x_max":382,"ha":382,"o":"m 49 118 q 49 126 51 142 l 78 362 q 86 428 131 470 q 176 512 240 512 q 299 512 334 478 q 369 445 369 395 q 369 384 368 378 l 368 372 q 366 362 357 362 l 325 360 q 320 360 318 363 q 315 366 316 370 l 317 376 q 321 412 298 438 q 275 465 235 465 q 194 465 164 436 q 135 406 129 359 l 103 144 q 102 138 102 126 q 102 87 124 63 q 145 39 182 39 q 223 39 252 66 q 282 92 286 128 l 287 133 q 289 143 298 143 l 330 143 q 340 143 338 133 l 337 125 q 333 89 312 58 q 290 28 254 10 q 219 -8 177 -8 q 118 -8 84 26 q 49 61 49 118 z"},"!":{"x_min":0,"x_max":237,"ha":237,"o":"m 107 235 l 159 690 q 160 694 163 697 q 166 700 170 700 l 202 700 q 207 700 210 697 q 212 694 211 690 l 150 235 q 149 225 139 225 l 116 225 q 107 225 107 235 z m 57 48 q 57 72 73 88 q 89 104 112 104 q 131 104 143 92 q 155 81 155 62 q 155 37 139 20 q 123 4 99 4 q 80 4 68 16 q 57 28 57 48 z"},"/":{"x_min":0,"x_max":304,"ha":304,"o":"m 8 11 l 257 691 q 259 700 268 700 l 300 700 q 312 700 307 689 l 58 9 q 57 0 47 0 l 15 0 q 3 0 8 11 z"},"[":{"x_min":0,"x_max":283,"ha":283,"o":"m -8 -104 l 98 758 q 100 768 109 768 l 247 768 q 251 768 254 765 q 256 762 255 758 l 252 730 q 250 720 241 720 l 149 720 q 147 720 146 719 q 144 718 144 716 l 49 -63 q 48 -64 49 -66 q 50 -67 52 -67 l 145 -67 q 154 -67 154 -77 l 150 -104 q 148 -114 139 -114 l 1 -114 q -4 -114 -6 -111 q -9 -108 -8 -104 z"},"6":{"x_min":0,"x_max":390,"ha":390,"o":"m 362 274 q 362 256 358 212 q 352 170 343 134 q 325 64 284 28 q 243 -8 183 -8 q 127 -8 96 26 q 64 59 61 125 q 60 133 60 151 q 60 182 64 210 l 103 539 q 113 615 159 662 q 205 708 271 708 q 324 708 356 671 q 389 634 389 571 q 389 561 387 539 l 386 528 q 384 518 375 518 l 343 518 q 334 518 334 528 l 336 539 q 338 555 338 563 q 338 607 318 634 q 298 660 265 660 q 223 660 192 626 q 162 593 155 539 l 137 385 q 136 382 138 382 q 139 382 141 384 q 159 409 184 422 q 210 436 240 436 q 294 436 324 403 q 355 370 360 309 q 362 287 362 274 z m 307 215 q 310 242 310 267 q 310 282 308 308 q 299 389 232 389 q 164 389 134 303 q 121 263 116 215 q 111 178 111 133 q 114 87 134 63 q 154 39 189 39 q 263 39 293 139 q 303 187 307 215 z"},"r":{"x_min":0,"x_max":276,"ha":276,"o":"m 299 498 q 305 493 302 485 l 290 451 q 286 442 277 446 q 263 452 240 451 q 201 450 172 411 q 143 372 136 315 l 98 10 q 96 0 87 0 l 55 0 q 45 0 47 10 l 106 494 q 108 504 117 504 l 149 504 q 158 504 158 494 l 150 432 q 150 425 155 432 q 173 468 199 488 q 225 508 258 508 q 282 508 299 498 z"},"2":{"x_min":0,"x_max":380,"ha":380,"o":"m 95 47 l 328 47 q 338 47 336 37 l 333 10 q 331 0 322 0 l 32 0 q 22 0 24 10 l 27 40 q 29 49 32 53 l 61 94 q 192 280 236 344 q 315 464 324 537 q 326 555 326 562 q 326 608 304 634 q 283 661 246 661 q 205 661 176 627 q 147 593 141 538 l 136 502 q 136 498 133 495 q 130 492 125 492 l 91 492 q 87 492 84 495 q 82 498 83 502 l 88 540 q 99 615 144 662 q 189 708 253 708 q 311 708 344 670 q 378 632 378 568 q 378 559 376 537 q 366 446 280 321 q 280 321 184 183 l 93 52 q 91 50 92 48 q 93 47 95 47 z"},"{":{"x_min":0,"x_max":247,"ha":247,"o":"m 59 -34 q 59 -25 61 -3 l 88 216 q 90 236 90 243 q 90 272 80 287 q 71 302 51 307 q 43 309 44 317 l 47 343 q 48 352 57 353 q 82 358 96 380 q 111 401 116 443 l 142 656 q 149 714 174 741 q 200 768 247 768 l 287 768 q 292 768 294 765 q 297 762 296 758 l 292 730 q 292 726 289 723 q 286 720 281 720 l 255 720 q 227 720 212 702 q 196 683 191 643 l 167 442 q 161 397 147 371 q 133 345 109 333 q 104 332 108 328 q 142 308 142 252 q 142 238 139 218 l 114 10 q 112 -8 112 -13 q 112 -41 124 -54 q 135 -67 159 -67 l 185 -67 q 195 -67 193 -77 l 190 -104 q 188 -114 179 -114 l 138 -114 q 97 -114 78 -94 q 59 -75 59 -34 z"},"9":{"x_min":0,"x_max":383,"ha":383,"o":"m 370 543 q 370 519 367 490 l 326 161 q 317 85 271 38 q 225 -8 159 -8 q 105 -8 72 30 q 40 68 40 132 q 40 141 42 161 l 43 172 q 44 176 47 179 q 50 182 54 182 l 86 182 q 91 182 94 179 q 96 176 95 172 l 93 161 q 92 154 92 139 q 92 94 112 67 q 133 40 165 40 q 207 40 238 74 q 268 107 275 161 l 294 315 q 294 318 292 318 q 291 318 289 316 q 271 291 246 278 q 220 264 191 264 q 131 264 100 304 q 68 345 68 418 q 68 446 73 488 q 78 535 87 566 q 104 635 146 672 q 187 708 247 708 q 304 708 336 674 q 367 641 369 575 q 370 565 370 543 z m 296 397 q 308 434 315 485 q 320 537 319 567 q 311 661 241 661 q 167 661 138 561 q 128 520 124 485 q 120 458 120 429 q 120 404 122 392 q 131 311 198 311 q 266 311 296 397 z"}," ":{"x_min":0,"x_max":194,"ha":194,"o":""},"I":{"x_min":0,"x_max":204,"ha":204,"o":"m 58 10 l 142 690 q 144 700 153 700 l 185 700 q 195 700 193 690 l 110 10 q 108 0 99 0 l 67 0 q 58 0 58 10 z"},"H":{"x_min":0,"x_max":456,"ha":456,"o":"m 404 700 l 436 700 q 445 700 445 690 l 361 10 q 359 0 350 0 l 318 0 q 308 0 310 10 l 348 323 q 348 327 345 327 l 153 327 q 150 327 148 323 l 110 10 q 108 0 99 0 l 67 0 q 58 0 58 10 l 142 690 q 144 700 153 700 l 185 700 q 195 700 193 690 l 155 378 q 155 376 156 375 q 157 374 158 374 l 351 374 q 352 374 354 375 q 355 376 355 378 l 393 690 q 395 700 404 700 z"},"4":{"x_min":0,"x_max":386,"ha":386,"o":"m 371 233 l 368 205 q 367 201 364 198 q 361 195 357 195 l 328 195 q 326 195 324 194 q 323 193 323 191 l 301 10 q 299 0 290 0 l 258 0 q 248 0 250 10 l 272 191 q 272 195 268 195 l 38 195 q 33 195 30 198 q 28 201 29 205 l 32 231 q 34 239 36 243 l 240 692 q 245 700 253 700 l 288 700 q 293 700 294 697 q 296 694 294 689 l 94 248 q 93 246 94 244 q 95 243 97 243 l 274 243 q 277 243 279 247 l 299 413 q 301 423 310 423 l 342 423 q 352 423 350 413 l 330 247 q 330 245 331 244 q 332 243 333 243 l 363 243 q 367 243 370 240 q 372 237 371 233 z"},"~":{"x_min":0,"x_max":440,"ha":440,"o":"m 225 275 q 207 287 192 294 q 177 300 159 300 q 113 300 83 258 q 76 248 69 254 l 54 265 q 47 271 51 278 q 69 310 98 329 q 128 348 162 348 q 185 348 202 341 q 220 334 238 321 q 264 304 281 296 q 298 288 323 288 q 342 288 357 298 q 372 308 389 328 q 398 337 403 331 l 418 319 q 425 314 420 306 q 374 240 319 240 q 291 240 272 248 q 253 257 225 275 z"},"D":{"x_min":0,"x_max":449,"ha":449,"o":"m 58 10 l 142 690 q 144 700 153 700 l 295 700 q 359 700 394 660 q 430 621 430 552 q 430 528 428 516 l 387 184 q 377 99 329 50 q 281 0 210 0 l 67 0 q 58 0 58 10 z m 118 47 l 215 47 q 263 48 296 85 q 328 122 335 185 l 375 514 q 377 536 377 546 q 377 597 354 625 q 331 653 289 653 l 193 653 q 190 653 188 649 l 115 51 q 115 47 118 47 z"},"^":{"x_min":0,"x_max":378,"ha":378,"o":"m 57 321 l 228 692 q 231 700 240 700 l 270 700 q 274 700 277 698 q 280 696 281 692 l 360 321 l 361 318 q 361 310 351 310 l 326 310 q 318 310 315 318 l 251 637 q 250 639 248 639 q 246 639 245 637 l 101 318 q 100 314 96 312 q 92 310 89 310 l 63 310 q 52 310 57 321 z"},"0":{"x_min":0,"x_max":429,"ha":429,"o":"m 54 135 q 54 144 56 164 l 102 536 q 111 614 160 662 q 210 710 281 710 q 345 710 383 670 q 421 631 421 565 q 421 556 419 536 l 373 164 q 363 86 314 38 q 264 -10 193 -10 q 129 -10 92 30 q 54 69 54 135 z m 321 160 l 368 540 q 369 547 369 561 q 369 608 344 635 q 319 662 275 662 q 228 662 194 628 q 161 595 154 540 l 107 160 q 106 153 106 139 q 106 93 131 66 q 156 38 199 38 q 248 38 281 72 q 314 105 321 160 z"},"F":{"x_min":0,"x_max":387,"ha":387,"o":"m 421 653 l 193 653 q 190 653 188 649 l 155 378 q 155 376 156 375 q 157 374 158 374 l 305 374 q 315 374 313 364 l 310 337 q 308 327 299 327 l 153 327 q 150 327 148 323 l 110 10 q 108 0 99 0 l 67 0 q 58 0 58 10 l 142 690 q 144 700 153 700 l 426 700 q 431 700 434 697 q 436 694 435 690 l 432 663 q 431 659 428 656 q 425 653 421 653 z"},"`":{"x_min":0,"x_max":165,"ha":165,"o":""},"k":{"x_min":0,"x_max":382,"ha":382,"o":"m 47 10 l 130 690 q 132 700 141 700 l 173 700 q 182 700 182 690 l 130 270 q 130 268 132 268 q 134 267 135 269 l 323 498 q 328 504 335 504 l 369 504 q 375 504 376 500 q 378 497 374 492 l 263 356 q 261 354 261 351 l 333 11 l 333 9 q 333 0 324 0 l 290 0 q 282 0 279 8 l 224 305 q 223 311 218 306 l 122 190 q 120 188 120 185 l 98 10 q 96 0 87 0 l 55 0 q 45 0 47 10 z"},"u":{"x_min":0,"x_max":405,"ha":405,"o":"m 341 504 l 373 504 q 382 504 382 494 l 322 10 q 322 6 319 3 q 316 0 311 0 l 279 0 q 275 0 272 3 q 270 6 271 10 l 275 46 q 276 49 274 50 q 273 50 271 48 q 233 -7 165 -7 q 113 -7 84 22 q 55 51 55 108 q 55 117 57 139 l 100 494 q 101 498 104 501 q 107 504 111 504 l 143 504 q 148 504 150 501 q 153 498 152 494 l 110 151 q 108 133 108 125 q 108 83 128 62 q 147 40 183 40 q 226 40 254 72 q 282 104 289 160 l 330 494 q 332 504 341 504 z"},"]":{"x_min":0,"x_max":283,"ha":283,"o":"m 216 -114 l 77 -114 q 67 -114 69 -104 l 72 -77 q 74 -67 83 -67 l 176 -67 q 180 -67 180 -63 l 276 716 q 276 720 273 720 l 180 720 q 175 720 172 723 q 170 726 171 730 l 175 758 q 175 762 178 765 q 181 768 185 768 l 324 768 q 333 768 333 758 l 227 -104 q 225 -114 216 -114 z"},"U":{"x_min":0,"x_max":461,"ha":461,"o":"m 72 146 q 72 157 74 181 l 136 690 q 138 700 147 700 l 179 700 q 188 700 188 690 l 124 175 q 122 157 122 149 q 122 98 147 68 q 172 39 215 39 q 264 39 300 76 q 335 114 342 175 l 405 690 q 407 700 416 700 l 448 700 q 458 700 456 690 l 394 181 q 384 96 333 44 q 282 -8 210 -8 q 145 -8 108 34 q 72 75 72 146 z"},"o":{"x_min":0,"x_max":395,"ha":395,"o":"m 49 118 q 49 126 51 142 l 78 362 q 86 428 131 470 q 176 512 240 512 q 300 512 334 478 q 369 443 369 386 q 369 378 367 362 l 340 142 q 332 75 288 34 q 243 -8 177 -8 q 118 -8 84 26 q 49 61 49 118 z m 289 144 l 316 359 q 317 365 317 375 q 317 416 294 440 q 272 465 235 465 q 194 465 164 436 q 135 406 129 359 l 103 144 q 102 138 102 126 q 102 87 124 63 q 145 39 182 39 q 224 39 254 68 q 284 98 289 144 z"},"N":{"x_min":0,"x_max":473,"ha":473,"o":"m 423 700 l 454 700 q 458 700 460 697 q 463 694 462 690 l 379 10 q 378 6 375 3 q 372 0 368 0 l 330 0 q 321 0 320 8 l 182 568 q 182 571 180 570 q 178 570 177 567 l 110 10 q 108 0 99 0 l 67 0 q 58 0 58 10 l 142 690 q 144 700 153 700 l 190 700 q 198 700 199 692 l 339 135 q 339 132 341 132 q 343 133 344 136 l 412 690 q 412 694 415 697 q 418 700 423 700 z"},"+":{"x_min":0,"x_max":429,"ha":429,"o":"m 417 332 l 414 309 q 414 305 411 302 q 408 299 403 299 l 256 299 q 252 299 252 295 l 233 144 q 231 134 222 134 l 201 134 q 192 134 192 144 l 211 295 q 211 299 207 299 l 60 299 q 50 299 52 309 l 54 332 q 56 342 65 342 l 213 342 q 217 342 217 346 l 236 498 q 236 502 239 505 q 242 508 247 508 l 268 508 q 278 508 276 498 l 258 346 q 258 342 261 342 l 409 342 q 413 342 416 339 q 418 336 417 332 z"},"G":{"x_min":0,"x_max":433,"ha":433,"o":"m 57 128 q 57 136 59 154 l 107 546 q 116 619 164 664 q 213 708 284 708 q 348 708 386 671 q 424 634 424 572 q 424 564 422 546 l 417 502 q 415 492 406 492 l 374 492 q 365 492 365 502 l 371 547 q 372 553 372 565 q 372 609 346 635 q 321 661 278 661 q 230 661 197 630 q 164 599 157 547 l 109 153 q 108 147 108 135 q 108 91 134 65 q 159 39 202 39 q 250 39 283 70 q 316 101 322 153 l 340 294 q 340 298 336 298 l 245 298 q 235 298 237 308 l 240 335 q 242 345 251 345 l 388 345 q 398 345 396 335 l 374 154 q 365 81 316 36 q 267 -8 196 -8 q 132 -8 94 29 q 57 66 57 128 z"},"q":{"x_min":0,"x_max":410,"ha":410,"o":"m 340 504 l 372 504 q 381 504 381 494 l 297 -186 q 297 -190 294 -193 q 291 -196 286 -196 l 254 -196 q 250 -196 248 -193 q 245 -190 246 -186 l 273 38 q 274 40 272 40 q 271 41 269 39 q 249 16 222 4 q 195 -8 166 -8 q 112 -8 80 26 q 49 60 49 116 q 49 124 51 142 l 78 362 q 86 429 128 470 q 170 512 230 512 q 259 512 282 500 q 306 488 321 465 q 322 463 324 464 q 326 464 326 466 l 329 494 q 331 504 340 504 z m 286 144 l 313 360 q 314 366 314 378 q 314 417 293 441 q 272 465 236 465 q 194 465 164 436 q 134 406 129 360 l 102 144 q 101 138 101 126 q 101 87 124 63 q 146 39 183 39 q 223 39 252 68 q 281 97 286 144 z"},"d":{"x_min":0,"x_max":404,"ha":404,"o":"m 364 700 l 396 700 q 401 700 404 697 q 406 694 405 690 l 321 10 q 321 6 318 3 q 315 0 310 0 l 278 0 q 274 0 272 3 q 269 6 270 10 l 273 38 q 274 40 272 40 q 271 41 269 39 q 249 16 222 4 q 195 -8 166 -8 q 112 -8 81 26 q 50 61 50 117 q 50 133 51 141 l 78 362 q 86 429 128 470 q 170 512 230 512 q 259 512 282 500 q 306 488 321 465 q 322 463 324 464 q 326 464 326 466 l 353 690 q 354 694 357 697 q 360 700 364 700 z m 286 144 l 313 359 q 314 365 314 378 q 314 417 293 441 q 272 465 236 465 q 194 465 164 436 q 134 406 128 359 l 102 144 q 101 138 101 126 q 101 87 124 63 q 146 39 183 39 q 223 39 252 68 q 281 97 286 144 z"},"1":{"x_min":0,"x_max":241,"ha":241,"o":"m 200 700 l 235 700 q 240 700 242 697 q 245 694 244 690 l 160 10 q 160 6 157 3 q 154 0 149 0 l 117 0 q 113 0 110 3 q 108 6 109 10 l 185 633 q 186 635 184 636 q 183 637 181 636 l 82 597 l 78 596 q 71 596 71 604 l 69 627 q 69 636 77 640 l 187 697 q 194 700 200 700 z"},"5":{"x_min":0,"x_max":389,"ha":389,"o":"m 361 272 q 361 241 357 212 q 351 163 339 124 q 320 60 280 26 q 240 -8 182 -8 q 124 -8 92 26 q 60 60 57 127 l 57 157 q 59 167 68 167 l 100 167 q 109 167 109 157 q 108 151 108 143 q 109 135 109 131 q 115 39 188 39 q 256 39 287 126 q 298 157 305 212 q 309 240 309 271 q 309 286 307 308 q 295 384 230 384 q 193 384 168 364 q 142 345 128 307 q 124 298 116 298 l 83 298 q 73 298 75 308 l 122 690 q 122 694 125 697 q 128 700 133 700 l 389 700 q 393 700 396 697 q 398 694 397 690 l 394 663 q 392 653 383 653 l 172 653 q 168 653 168 649 l 135 381 q 135 375 139 380 q 179 431 248 431 q 297 431 325 402 q 353 373 358 317 q 361 296 361 272 z"}}}
